<?xml version="1.0" encoding="UTF-8"?>
<svg width="58px" height="30px" viewBox="0 0 58 30" version="1.1" xmlns="http://www.w3.org/2000/svg" xmlns:xlink="http://www.w3.org/1999/xlink">
    <!-- Generator: Sketch 41.2 (35397) - http://www.bohemiancoding.com/sketch -->
    <title>Shape</title>
    <desc>Created with Sketch.</desc>
    <defs></defs>
    <g id="Page-1" stroke="none" stroke-width="1" fill="none" fill-rule="evenodd">
        <g id="Desktop-HD" transform="translate(-63.000000, -13.000000)" fill="#8CB5D7">
            <g id="ic_timeline_black_48px-copy" transform="translate(61.000000, 2.000000)">
                <g id="Clipped">
                    <path d="M59.2434504,16.2083333 C59.2434504,18.9354167 56.9252285,21.1666667 54.0918461,21.1666667 C53.6282017,21.1666667 53.1903153,21.1170833 52.7781869,20.993125 L43.6083311,29.7941667 C43.7371212,30.1908333 43.7886373,30.6370833 43.7886373,31.0833333 C43.7886373,33.8104167 41.4704153,36.0416667 38.6370329,36.0416667 C35.8036505,36.0416667 33.4854285,33.8104167 33.4854285,31.0833333 C33.4854285,30.6370833 33.5369446,30.1908333 33.6657347,29.7941667 L27.0974391,23.4722917 C26.6853107,23.59625 26.2216663,23.6458333 25.7580219,23.6458333 C25.2943775,23.6458333 24.8307331,23.59625 24.4186048,23.4722917 L12.6987048,34.7772917 C12.8274949,35.1739583 12.879011,35.5954167 12.879011,36.0416667 C12.879011,38.76875 10.560789,41 7.72740658,41 C4.89402417,41 2.57580219,38.76875 2.57580219,36.0416667 C2.57580219,33.3145833 4.89402417,31.0833333 7.72740658,31.0833333 C8.19105097,31.0833333 8.62893735,31.1329167 9.0410657,31.256875 L20.7867237,19.9766667 C20.6579336,19.58 20.6064175,19.13375 20.6064175,18.6875 C20.6064175,15.9604167 22.9246395,13.7291667 25.7580219,13.7291667 C28.5914043,13.7291667 30.9096263,15.9604167 30.9096263,18.6875 C30.9096263,19.13375 30.8581103,19.58 30.7293202,19.9766667 L37.2976158,26.2985417 C37.7097441,26.1745833 38.1733885,26.125 38.6370329,26.125 C39.1006773,26.125 39.5643217,26.1745833 39.97645,26.2985417 L49.1205478,17.4727083 C48.9917577,17.0760417 48.9402417,16.6545833 48.9402417,16.2083333 C48.9402417,13.48125 51.2584636,11.25 54.0918461,11.25 C56.9252285,11.25 59.2434504,13.48125 59.2434504,16.2083333 Z" id="Shape"></path>
                </g>
            </g>
        </g>
    </g>
</svg>